<svg width="97" height="93" viewBox="0 0 97 93" fill="none" xmlns="http://www.w3.org/2000/svg">
<g clip-path="url(#paint0_diamond_20_122_clip_path)" data-figma-skip-parse="true"><g transform="matrix(0 0.051 -0.051 0 48.5039 51)"><rect x="0" y="0" width="1019.61" height="1019.61" fill="url(#paint0_diamond_20_122)" opacity="1" shape-rendering="crispEdges"/><rect x="0" y="0" width="1019.61" height="1019.61" transform="scale(1 -1)" fill="url(#paint0_diamond_20_122)" opacity="1" shape-rendering="crispEdges"/><rect x="0" y="0" width="1019.61" height="1019.61" transform="scale(-1 1)" fill="url(#paint0_diamond_20_122)" opacity="1" shape-rendering="crispEdges"/><rect x="0" y="0" width="1019.61" height="1019.61" transform="scale(-1)" fill="url(#paint0_diamond_20_122)" opacity="1" shape-rendering="crispEdges"/></g></g><path d="M48.5039 0L59.9541 35.2401L97.0078 35.2401L67.0307 57.0197L78.481 92.2599L48.5039 70.4803L18.5269 92.2599L29.9771 57.0197L2.28882e-05 35.2401L37.0537 35.2401L48.5039 0Z" data-figma-gradient-fill="{&#34;type&#34;:&#34;GRADIENT_DIAMOND&#34;,&#34;stops&#34;:[{&#34;color&#34;:{&#34;r&#34;:1.0,&#34;g&#34;:0.97516024112701416,&#34;b&#34;:0.25480768084526062,&#34;a&#34;:1.0},&#34;position&#34;:0.0},{&#34;color&#34;:{&#34;r&#34;:0.78846156597137451,&#34;g&#34;:0.78846156597137451,&#34;b&#34;:0.0,&#34;a&#34;:1.0},&#34;position&#34;:1.0}],&#34;stopsVar&#34;:[{&#34;color&#34;:{&#34;r&#34;:1.0,&#34;g&#34;:0.97516024112701416,&#34;b&#34;:0.25480768084526062,&#34;a&#34;:1.0},&#34;position&#34;:0.0},{&#34;color&#34;:{&#34;r&#34;:0.78846156597137451,&#34;g&#34;:0.78846156597137451,&#34;b&#34;:0.0,&#34;a&#34;:1.0},&#34;position&#34;:1.0}],&#34;transform&#34;:{&#34;m00&#34;:6.2456990805332541e-15,&#34;m01&#34;:-102.0,&#34;m02&#34;:99.503906250,&#34;m10&#34;:102.0,&#34;m11&#34;:6.2456990805332541e-15,&#34;m12&#34;:-6.2456990805332541e-15},&#34;opacity&#34;:1.0,&#34;blendMode&#34;:&#34;NORMAL&#34;,&#34;visible&#34;:true}"/>
<defs>
<clipPath id="paint0_diamond_20_122_clip_path"><path d="M48.5039 0L59.9541 35.2401L97.0078 35.2401L67.0307 57.0197L78.481 92.2599L48.5039 70.4803L18.5269 92.2599L29.9771 57.0197L2.28882e-05 35.2401L37.0537 35.2401L48.5039 0Z"/></clipPath><linearGradient id="paint0_diamond_20_122" x1="0" y1="0" x2="500" y2="500" gradientUnits="userSpaceOnUse">
<stop stop-color="#FFF941"/>
<stop offset="1" stop-color="#C9C900"/>
</linearGradient>
</defs>
</svg>
